<svg xmlns="http://www.w3.org/2000/svg" viewBox="0 0 81.2 54.45"><defs><style>.cls-1{fill:none;stroke:#edecec;stroke-miterlimit:10;stroke-width:3px;}.cls-2{fill:#edecec;}</style></defs><title>Asset 3</title><g id="Layer_2" data-name="Layer 2"><g id="Layer_1-2" data-name="Layer 1"><path class="cls-1" d="M40,20.73a8.5,8.5,0,1,1-8.5-8.5A8.5,8.5,0,0,1,40,20.73Zm22.5-9v-9c-11,7-29,1-29,1-15-4-32,0-32,0v35c13-8,37,0,37,0"/><path class="cls-2" d="M62.2,16.45a19,19,0,1,0,19,19A19,19,0,0,0,62.2,16.45ZM71.7,31,58.9,42.06a1.36,1.36,0,0,1-2-.21L52.5,36a1.36,1.36,0,1,1,2.21-1.56L57,37.75A1.36,1.36,0,0,0,59,38l10.89-9.21a1.36,1.36,0,0,1,1.83.08l.09.09A1.36,1.36,0,0,1,71.7,31Z"/></g></g></svg>