<svg xmlns="http://www.w3.org/2000/svg" viewBox="0 0 83 54.73"><defs><style>.cls-1{fill:none;stroke:#edecec;stroke-miterlimit:10;stroke-width:3px;}.cls-2{fill:#edecec;}</style></defs><title>Asset 2</title><g id="Layer_2" data-name="Layer 2"><g id="Layer_1-2" data-name="Layer 1"><path class="cls-1" d="M40,20.73a8.5,8.5,0,1,1-8.5-8.5A8.5,8.5,0,0,1,40,20.73Zm22.5-9v-9c-11,7-29,1-29,1-15-4-32,0-32,0v35c13-8,37,0,37,0"/><path class="cls-2" d="M64,16.73a19,19,0,1,0,19,19A19,19,0,0,0,64,16.73Zm0,9a4,4,0,1,1-4,4A4,4,0,0,1,64,25.73Zm-10,20c0-9,10-10,10-10,9,1,10,10,10,10Z"/></g></g></svg>